<?xml version="1.0" standalone="no"?><!DOCTYPE svg PUBLIC "-//W3C//DTD SVG 1.1//EN" "http://www.w3.org/Graphics/SVG/1.1/DTD/svg11.dtd"><svg t="1574215757491" class="icon" viewBox="0 0 1024 1024" version="1.1" xmlns="http://www.w3.org/2000/svg" p-id="3962" xmlns:xlink="http://www.w3.org/1999/xlink" width="200" height="200"><defs><style type="text/css"></style></defs><path d="M825.6 473.6H544V198.4c0-19.2-12.8-32-32-32s-32 12.8-32 32V480H204.8c-25.6 0-38.4 12.8-38.4 32s12.8 32 32 32h275.2v275.2c0 19.2 12.8 32 32 32s32-12.8 32-32V544h275.2c19.2 0 32-12.8 32-32s0-38.4-19.2-38.4zM512 0C230.4 0 0 230.4 0 512s230.4 512 512 512 512-230.4 512-512S793.6 0 512 0z m0 953.6C268.8 953.6 70.4 755.2 70.4 512 70.4 268.8 268.8 70.4 512 70.4c243.2 0 441.6 198.4 441.6 441.6 0 243.2-198.4 441.6-441.6 441.6z" fill="#1296db" p-id="3963"></path></svg>