<?xml version="1.0" standalone="no"?><!DOCTYPE svg PUBLIC "-//W3C//DTD SVG 1.1//EN" "http://www.w3.org/Graphics/SVG/1.1/DTD/svg11.dtd"><svg t="1574073944778" class="icon" viewBox="0 0 1024 1024" version="1.1" xmlns="http://www.w3.org/2000/svg" p-id="1806" xmlns:xlink="http://www.w3.org/1999/xlink" width="200" height="200"><defs><style type="text/css"></style></defs><path d="M851.219814 922.551084v66.575851c0 19.021672-15.851393 34.873065-34.873065 34.873065h-101.448916c-19.021672 0-34.873065-15.851393-34.873065-34.873065v-66.575851H343.975232v66.575851c0 19.021672-15.851393 34.873065-34.873065 34.873065H207.653251c-19.021672 0-34.873065-15.851393-34.873065-34.873065v-66.575851c-38.043344 0-66.575851-31.702786-66.575852-66.575852V145.832817c0-38.043344 63.405573-66.575851 101.448917-66.575851 0 0 136.321981-66.575851 304.346749-66.575851 171.195046 0 339.219814 66.575851 339.219814 66.575851 38.043344 0 66.575851 31.702786 66.575852 66.575851V855.975232c0 34.873065-31.702786 66.575851-66.575852 66.575852zM258.377709 821.102167c47.55418 0 85.597523-38.043344 85.597523-85.597523S305.931889 649.907121 258.377709 649.907121c-47.55418 0-85.597523 38.043344-85.597523 85.597523s38.043344 85.597523 85.597523 85.597523zM648.321981 76.086687h-269.473684c-19.021672 0-34.873065 15.851393-34.873065 34.873065 0 19.021672 15.851393 34.873065 34.873065 34.873065h269.473684c19.021672 0 34.873065-15.851393 34.873065-34.873065-3.170279-19.021672-15.851393-34.873065-34.873065-34.873065z m202.897833 202.897833c0-19.021672-15.851393-34.873065-34.873065-34.873065H207.653251c-19.021672 0-34.873065 15.851393-34.873065 34.873065v202.897833c0 19.021672 15.851393 34.873065 34.873065 34.873065h608.693498c19.021672 0 34.873065-15.851393 34.873065-34.873065V278.98452zM765.622291 649.907121c-47.55418 0-85.597523 38.043344-85.597523 85.597523s38.043344 85.597523 85.597523 85.597523 85.597523-38.043344 85.597523-85.597523-38.043344-85.597523-85.597523-85.597523z" fill="#1296db" p-id="1807"></path></svg>