<?xml version="1.0" standalone="no"?><!DOCTYPE svg PUBLIC "-//W3C//DTD SVG 1.1//EN" "http://www.w3.org/Graphics/SVG/1.1/DTD/svg11.dtd"><svg t="1574125215149" class="icon" viewBox="0 0 1024 1024" version="1.1" xmlns="http://www.w3.org/2000/svg" p-id="4810" xmlns:xlink="http://www.w3.org/1999/xlink" width="200" height="200"><defs><style type="text/css"></style></defs><path d="M85.2 436h8.7c11 0 20-9 20-20V312c0-11-9-20-20-20h-8.7c-22.1 0-40 17.9-40 40v64c0 22.1 18 40 40 40zM908.3 312v104c0 11 9 20 20 20h8.7c22.1 0 40-17.9 40-40v-64c0-22.1-17.9-40-40-40h-8.7c-11.1 0-20 8.9-20 20zM136.1 228v554c0 33.1 26.9 60 60 60h4v58.3c0 32 26 58 58 58 33.1 0 60-26.9 60-60V862c0-11 9-20 20-20h360c11 0 20 9 20 20v38.3c0 32 26 58 58 58 33.1 0 60-26.9 60-60V842c27.6 0 50-22.4 50-50V228c0-44.2-35.8-80-80-80h-590c-44.2 0-80 35.8-80 80z m183 40h384c44.2 0 80 35.8 80 80v80c0 22.1-17.9 40-40 40h-464c-22.1 0-40-17.9-40-40v-80c0-44.2 35.8-80 80-80z m-16.6 432.9c-36.7 0-66.5-29.8-66.5-66.5s29.8-66.5 66.5-66.5 66.5 29.8 66.5 66.5-29.8 66.5-66.5 66.5z m415 0c-36.7 0-66.5-29.8-66.5-66.5s29.8-66.5 66.5-66.5 66.5 29.8 66.5 66.5-29.8 66.5-66.5 66.5z" p-id="4811"></path></svg>