<?xml version="1.0" standalone="no"?><!DOCTYPE svg PUBLIC "-//W3C//DTD SVG 1.1//EN" "http://www.w3.org/Graphics/SVG/1.1/DTD/svg11.dtd"><svg t="1574130276025" class="icon" viewBox="0 0 1024 1024" version="1.1" xmlns="http://www.w3.org/2000/svg" p-id="34260" xmlns:xlink="http://www.w3.org/1999/xlink" width="200" height="200"><defs><style type="text/css"></style></defs><path d="M352 224C371.2 224 384 211.2 384 192L384 96C384 76.8 371.2 64 352 64 332.8 64 320 76.8 320 96L320 192C320 211.2 332.8 224 352 224zM704 224c19.2 0 32-12.8 32-32L736 96C736 76.8 723.2 64 704 64c-19.2 0-32 12.8-32 32L672 192C672 211.2 684.8 224 704 224zM864 864c0 19.2-12.8 32-32 32L192 896c-19.2 0-32-12.8-32-32L160 384l704 0L864 864zM844.8 128l-44.8 0C780.8 128 768 140.8 768 160 768 179.2 780.8 192 800 192l44.8 0c6.4 0 19.2 12.8 19.2 32L864 320l-704 0L160 224C160 204.8 172.8 192 192 192l64 0c19.2 0 32-12.8 32-32C288 140.8 275.2 128 256 128L192 128C140.8 128 96 172.8 96 224l0 640C96 915.2 140.8 960 192 960l640 0c51.2 0 96-44.8 96-96l0-640C928 172.8 889.6 128 844.8 128zM448 192l160 0C627.2 192 640 179.2 640 160 640 140.8 627.2 128 608 128L448 128C428.8 128 416 140.8 416 160 416 179.2 428.8 192 448 192zM256 768l512 0c19.2 0 32-12.8 32-32 0-19.2-12.8-32-32-32L256 704c-19.2 0-32 12.8-32 32C224 755.2 236.8 768 256 768zM256 576l512 0c19.2 0 32-12.8 32-32C800 524.8 787.2 512 768 512L256 512C236.8 512 224 524.8 224 544 224 563.2 236.8 576 256 576z" p-id="34261" fill="#2c2c2c"></path></svg>