<?xml version="1.0" standalone="no"?><!DOCTYPE svg PUBLIC "-//W3C//DTD SVG 1.1//EN" "http://www.w3.org/Graphics/SVG/1.1/DTD/svg11.dtd"><svg t="1574333834779" class="icon" viewBox="0 0 1024 1024" version="1.1" xmlns="http://www.w3.org/2000/svg" p-id="5940" xmlns:xlink="http://www.w3.org/1999/xlink" width="200" height="200"><defs><style type="text/css"></style></defs><path d="M570.88 531.968m-359.936 0a359.936 359.936 0 1 0 719.872 0 359.936 359.936 0 1 0-719.872 0Z" fill="#FFDB62" p-id="5941"></path><path d="M931.328 518.656c0-233.472-188.928-419.328-419.328-419.328-233.472 0-419.328 188.928-419.328 419.328 0 137.728 67.072 259.072 169.472 335.872l-57.856 51.2c-9.728 9.728-12.8 25.6-3.072 35.328 9.728 9.728 25.6 12.8 35.328 3.072L307.2 886.272c60.928 35.328 131.072 54.272 207.872 54.272 79.872 0 153.6-22.528 214.528-60.928l3.072 3.072 73.728 60.928c9.728 9.728 25.6 6.656 35.328-3.072 9.728-9.728 6.656-25.6-3.072-35.328l-64-54.272c92.672-76.288 156.672-198.144 156.672-332.288zM512 889.856c-204.8 0-371.2-166.4-371.2-371.2S307.2 147.456 512 147.456s371.2 166.4 371.2 371.2-166.4 371.2-371.2 371.2z m-304.128-793.6c-9.728-9.728-25.6-9.728-35.328 0L54.272 214.528c-9.728 9.728-9.728 25.6 0 35.328 9.728 9.728 25.6 9.728 35.328 0l118.272-118.272c9.728-9.728 9.728-26.112 0-35.328z m761.856 115.2l-118.272-115.2c-9.728-9.728-25.6-9.728-35.328 0s-9.728 25.6 0 35.328l118.272 115.2c9.728 9.728 25.6 9.728 35.328 0s9.728-26.112 0-35.328z" fill="#333333" p-id="5942"></path><path d="M680.448 332.288l-143.872 128s0 3.072-3.072 3.072c-12.8-3.072-22.528-6.144-35.328-6.144s-22.528 3.072-32.256 6.144c0-3.072-3.072-3.072-3.072-6.144L370.176 373.76c-9.728-9.728-25.6-9.728-35.328 3.072-9.728 9.728-9.728 25.6 3.072 35.328l89.6 79.872c-15.872 19.456-28.672 41.472-28.672 70.656 0 54.272 44.544 102.4 102.4 102.4 54.272 0 102.4-45.056 102.4-102.4 0-25.6-9.728-48.128-25.6-67.072l140.8-124.928c9.728-9.728 9.728-25.6 3.072-35.328-15.872-9.728-31.744-9.728-41.472-3.072z m-182.272 281.6c-28.672 0-51.2-22.528-51.2-51.2s22.528-51.2 51.2-51.2 51.2 22.528 51.2 51.2c0 25.6-22.528 51.2-51.2 51.2z" fill="#333333" p-id="5943"></path></svg>