<?xml version="1.0" standalone="no"?><!DOCTYPE svg PUBLIC "-//W3C//DTD SVG 1.1//EN" "http://www.w3.org/Graphics/SVG/1.1/DTD/svg11.dtd"><svg t="1574125550008" class="icon" viewBox="0 0 1024 1024" version="1.1" xmlns="http://www.w3.org/2000/svg" p-id="11932" xmlns:xlink="http://www.w3.org/1999/xlink" width="200" height="200"><defs><style type="text/css"></style></defs><path d="M512.072 879.734c-203.807 0-369.613-165.806-369.613-369.608s165.806-369.613 369.613-369.613S881.684 306.32 881.684 510.126s-165.81 369.608-369.612 369.608z m0-686.976c-174.997 0-317.364 142.366-317.364 317.363s142.367 317.358 317.364 317.358 317.363-142.367 317.363-317.358-142.372-317.363-317.363-317.363z m-375.476 97.157a26.127 26.127 0 0 1-21.8-40.479C155.694 187.233 211.4 134.784 275.9 97.772a26.132 26.132 0 0 1 35.661 9.656 26.117 26.117 0 0 1-9.656 35.66c-57.431 32.958-107.039 79.658-143.457 135.05a26.097 26.097 0 0 1-21.853 11.777z m750.95-0.01a26.112 26.112 0 0 1-21.856-11.776C829.27 222.74 779.663 176.04 722.232 143.084a26.127 26.127 0 1 1 26.01-45.312c64.497 37.012 120.207 89.456 161.106 151.659a26.117 26.117 0 0 1-21.801 40.474z" fill="#1296db" p-id="11933"></path><path d="M233.441 915.697a26.122 26.122 0 0 1-18.473-44.6L286.9 799.17a26.122 26.122 0 0 1 36.946 0.005 26.122 26.122 0 0 1 0 36.946l-71.93 71.925a26.045 26.045 0 0 1-18.474 7.65z m557.261 0a26.035 26.035 0 0 1-18.473-7.655l-71.92-71.926a26.127 26.127 0 0 1 36.95-36.94L809.18 871.1a26.127 26.127 0 0 1-18.478 44.596zM644.45 676.869a26.05 26.05 0 0 1-18.473-7.65L493.6 536.848a26.127 26.127 0 0 1-7.655-18.473V300.877a26.127 26.127 0 0 1 52.255 0v206.669l124.728 124.718a26.138 26.138 0 0 1-18.478 44.605z" fill="#1296db" p-id="11934"></path></svg>