<svg t="1589943230326" class="icon" viewBox="0 0 1024 1024" version="1.1" xmlns="http://www.w3.org/2000/svg" p-id="3101" width="200" height="200"><path d="M929.039059 1024H149.353412A65.355294 65.355294 0 0 1 84.48 958.644706v-174.320941a21.805176 21.805176 0 0 1 21.624471-21.805177A53.428706 53.428706 0 0 1 150.738824 783.058824v180.705882c0 12.047059-12.047059 0 0 0h783.058823c12.047059 0 0 12.047059 0 0V60.235294c0-12.047059 12.047059 0 0 0H150.738824c-12.047059 0 0-12.047059 0 0v180.705882a53.428706 53.428706 0 0 1-44.694589 20.48 21.805176 21.805176 0 0 1-21.564235-21.805176V65.355294A65.355294 65.355294 0 0 1 149.353412 0h779.685647A65.355294 65.355294 0 0 1 994.032941 65.355294v893.289412A65.355294 65.355294 0 0 1 929.039059 1024zM813.327059 783.058824H271.209412c-12.047059 0 0 12.047059 0 0a271.36 271.36 0 0 1 152.154353-268.890353A230.219294 230.219294 0 0 1 331.444706 361.411765c0-101.857882 106.496-176.248471 207.751529-176.248471S753.091765 259.553882 753.091765 361.411765a238.772706 238.772706 0 0 1-98.002824 152.756706A276.058353 276.058353 0 0 1 813.327059 783.058824c0 12.047059 12.047059 0 0 0z m-481.882353-60.235295h421.647059a174.682353 174.682353 0 0 0-153.238589-181.428705 20.781176 20.781176 0 0 1-16.263529-19.094589 22.106353 22.106353 0 0 1 12.890353-21.744941 147.696941 147.696941 0 0 0 97.581176-132.156235A144.022588 144.022588 0 0 0 542.268235 240.158118 138.842353 138.842353 0 0 0 388.246588 361.411765a159.503059 159.503059 0 0 0 94.629647 138.541176 22.106353 22.106353 0 0 1 13.010824 21.805177 21.443765 21.443765 0 0 1-16.26353 19.094588C375.175529 566.994824 340.118588 616.628706 331.444706 722.823529zM160.195765 370.386824h-108.42353a21.805176 21.805176 0 0 1 0-43.550118h108.42353a21.805176 21.805176 0 0 1 0 43.550118z m0 163.418352h-108.42353a21.805176 21.805176 0 0 1 0-43.550117h108.42353a21.805176 21.805176 0 0 1 0 43.550117z m0 163.418353h-108.42353a21.805176 21.805176 0 0 1 0-43.550117h108.42353a21.805176 21.805176 0 0 1 0 43.550117z m0 0" p-id="3102" fill="#1296db"></path></svg>