<svg t="1608712208764" class="icon" viewBox="0 0 1024 1024" version="1.1" xmlns="http://www.w3.org/2000/svg" p-id="2559" width="200" height="200"><path d="M451.5 232.2c-0.6 0-1.3-0.1-1.9-0.2-14.7-1.8-181.6-19.3-263 102-60.1 89.5-112 219-137.3 287.4-8.3 22.6 8.4 46.5 32.5 46.5h791.3c16.7 0 31-11.9 34-28.2l52-278.7c3.5-18.6-8.7-36.6-27.4-40.3-108.1-21.2-442-86.1-480.2-88.5z" fill="#FFFFFF" p-id="2560"></path><path d="M873.1 684.5H81.7c-16.7 0-32.5-8.2-42-21.9-9.6-13.7-11.8-31.3-6-47 25.8-69.7 78.1-200.1 139-290.9 20.1-29.9 46.7-54.4 79-72.6 25.9-14.6 55.5-25.2 88.1-31.6 55.8-11 102.8-6.1 111.7-5 0.3 0 0.6 0.1 1 0.1 38.3 2.4 350.1 62.9 482.4 88.8 27.5 5.4 45.6 32.1 40.5 59.6l-52 278.7c-4.5 24.3-25.7 41.8-50.3 41.8zM413.8 246.8c-18.1 0-41.9 1.3-67.5 6.4-65.3 12.8-114.5 43.1-146 90-59 88-110.2 215.7-135.4 284-2.1 5.6-1.3 11.6 2.1 16.5 3.4 4.9 8.8 7.7 14.8 7.7h791.3c8.7 0 16.1-6.2 17.7-14.7l52-278.7c1.8-9.6-4.6-19-14.2-20.9-211.7-41.4-448.4-86.4-478.1-88.3-1-0.1-1.9-0.1-2.9-0.3-2.6-0.3-15.2-1.7-33.8-1.7z" fill="#00D8FF" p-id="2561"></path><path d="M91.5 575.9h325.9c9.2 0 16.7-7.4 16.7-16.6s-7.5-16.6-16.7-16.6H91.5c-9.2 0-16.7 7.4-16.7 16.6s7.5 16.6 16.7 16.6z" fill="#00D8FF" p-id="2562"></path><path d="M520.1 361.5H561c9.1 0 16.5 8.3 16.5 18.5s-7.4 18.5-16.5 18.5h-40.9c-9.1 0-16.5-8.3-16.5-18.5 0-10.3 7.4-18.5 16.5-18.5z" fill="#55FDC3" p-id="2563"></path><path d="M212.2 312.3h160.4c18.5 0 33.5 14.9 33.5 33.3 0 4.3-0.8 8.5-2.4 12.5l-28.4 70.1c-5.1 12.6-17.4 20.8-31 20.8H116.1c46.2-89.2 78.2-134.8 96.1-136.7z" fill="#00D8FF" p-id="2564"></path><path d="M714.1 448.6h226.7l-23.2 110.8H694.9c-11 0-19.1-10.3-16.4-21l19.2-77c1.8-7.5 8.6-12.8 16.4-12.8z" fill="#FFFFFF" p-id="2565"></path><path d="M931.1 576H694.9c-10.4 0-20-4.7-26.4-12.9s-8.6-18.7-6.1-28.8l19.2-77c3.7-15 17.1-25.4 32.6-25.4h247.2L931.1 576z m-217-110.8c-0.1 0-0.3 0.1-0.3 0.2l-19.2 77c0 0.1 0 0.1 0.1 0.3 0.1 0.1 0.1 0.1 0.2 0.1h209.2l16.2-77.6H714.1z" fill="#00D8FF" p-id="2566"></path><path d="M788.7 431.5h96.2l-35.9 145h-96.2z" fill="#80F688" p-id="2567"></path><path d="M832.3 742.2h17.1c11.9 0 21.5 9.9 21.5 22.2 0 12.2-9.6 22.2-21.5 22.2h-17.1c-11.9 0-21.5-9.9-21.5-22.2 0-12.3 9.6-22.2 21.5-22.2zM127.5 742.2h266.7c12.3 0 22.3 9.9 22.3 22.2 0 12.2-10 22.2-22.3 22.2H127.5c-12.3 0-22.3-9.9-22.3-22.2 0.1-12.3 10-22.2 22.3-22.2zM600.6 742.2h19.7c13.7 0 24.8 9.9 24.8 22.2 0 12.2-11.1 22.2-24.8 22.2h-19.7c-13.7 0-24.8-9.9-24.8-22.2 0-12.3 11.1-22.2 24.8-22.2zM739.2 742.2h17.1c11.9 0 21.5 9.9 21.5 22.2 0 12.2-9.6 22.2-21.5 22.2h-17.1c-11.9 0-21.5-9.9-21.5-22.2 0.1-12.3 9.7-22.2 21.5-22.2zM833.9 362.1c10.2 0 18.5 8.3 18.5 18.5s-8.3 18.5-18.5 18.5-18.5-8.3-18.5-18.5c0.1-10.2 8.3-18.5 18.5-18.5zM896.4 362.1c10.2 0 18.5 8.3 18.5 18.5s-8.3 18.5-18.5 18.5-18.5-8.3-18.5-18.5 8.3-18.5 18.5-18.5z" fill="#F1F2F2" p-id="2568"></path><path d="M759 361.9c10.3 0 18.7 8.4 18.7 18.7 0 10.3-8.4 18.7-18.7 18.7s-18.7-8.4-18.7-18.7 8.4-18.7 18.7-18.7zM696.6 362.1c10.2 0 18.5 8.3 18.5 18.5s-8.3 18.5-18.5 18.5-18.5-8.3-18.5-18.5 8.3-18.5 18.5-18.5z" fill="#00A5FF" p-id="2569"></path><path d="M128.6 386.9c20.7 0 37.4 16.7 37.4 37.4s-16.7 37.4-37.4 37.4-37.4-16.7-37.4-37.4 16.7-37.4 37.4-37.4z" fill="#F1F2F2" p-id="2570"></path></svg>