<svg t="1608712149107" class="icon" viewBox="0 0 1024 1024" version="1.1" xmlns="http://www.w3.org/2000/svg" p-id="2041" width="200" height="200"><path d="M780.8 853.333333c64-85.333333 106.666667-183.466667 128-285.866666 0-4.266667 0-8.533333-4.266667-12.8-4.266667-4.266667-4.266667-4.266667-8.533333-4.266667l-29.866667-4.266667v-170.666666c0-42.666667-34.133333-93.866667-85.333333-102.4V170.666667H853.333333v-29.866667h-328.533333V29.866667H597.333333V0h-170.666666v29.866667h72.533333v115.2H170.666667V170.666667h72.533333v102.4c-51.2 8.533333-85.333333 59.733333-85.333333 102.4v170.666666l-29.866667 4.266667c-4.266667 0-8.533333 4.266667-8.533333 4.266667-4.266667 4.266667-4.266667 8.533333-4.266667 12.8 21.333333 102.4 64 200.533333 128 285.866666h-213.333333v29.866667h968.533333V853.333333h-217.6z m59.733333-477.866666v21.333333h-55.466666V302.933333c29.866667 8.533333 55.466667 42.666667 55.466666 72.533334zM268.8 298.666667h98.133333v98.133333H268.8V298.666667z m128 0h98.133333v98.133333H396.8V298.666667z m128 0h98.133333v98.133333h-98.133333V298.666667z m128 0h98.133333v98.133333h-98.133333V298.666667z m-153.6-128h256v98.133333H268.8V170.666667h230.4z m-256 132.266666v98.133334H183.466667v-25.6c0-29.866667 25.6-64 59.733333-72.533334zM183.466667 426.666667h652.8v115.2L512 486.4h-4.266667l-324.266666 55.466667V426.666667z m93.866666 426.666666c-64-81.066667-110.933333-174.933333-132.266666-277.333333l354.133333-64v72.533333l-145.066667 25.6 4.266667 29.866667 140.8-25.6v226.133333c0 8.533333 4.266667 12.8 8.533333 12.8H277.333333z m243.2 0c4.266667 0 8.533333-4.266667 8.533334-12.8v-226.133333l140.8 25.6 4.266666-29.866667-145.066666-25.6V512l354.133333 64c-21.333333 102.4-68.266667 196.266667-132.266667 277.333333h-230.4zM157.866667 925.866667h712.533333v29.866666H157.866667zM268.8 994.133333h482.133333v29.866667H268.8z" fill="#1296db" p-id="2042"></path></svg>