<?xml version="1.0" standalone="no"?><!DOCTYPE svg PUBLIC "-//W3C//DTD SVG 1.1//EN" "http://www.w3.org/Graphics/SVG/1.1/DTD/svg11.dtd"><svg t="1574125151294" class="icon" viewBox="0 0 1024 1024" version="1.1" xmlns="http://www.w3.org/2000/svg" p-id="2566" width="200" height="200" xmlns:xlink="http://www.w3.org/1999/xlink"><defs><style type="text/css"></style></defs><path d="M916.41375605 273.67550419h-18.38244346v-92.17112494c0-30.29219555-22.26605827-66.2803595-49.45136198-79.87301135 0 0-97.86709333-48.93354667-337.22721975-48.93354666S173.99605728 101.6313679 173.99605728 101.6313679c-27.1853037 13.59265185-49.45136197 49.58081581-49.45136197 79.87301135v92.17112494h-18.38244346a55.40623803 55.40623803 0 0 0-55.2767842 55.14733038v55.27678419a55.40623803 55.40623803 0 0 0 55.2767842 55.27678421h18.38244346v377.48736a55.53569185 55.53569185 0 0 0 36.89434074 52.04043851v30.81001087a73.65922765 73.65922765 0 1 0 147.31845531 0v-27.57366518h405.06102517v27.57366518a73.65922765 73.65922765 0 0 0 147.31845532 0v-30.81001087a55.40623803 55.40623803 0 0 0 36.89434074-52.04043851V439.37640297h18.38244346a55.40623803 55.40623803 0 0 0 55.2767842-55.27678421v-55.27678419a55.40623803 55.40623803 0 0 0-55.2767842-55.14733038z m-589.27382123-128.93601184a18.51189728 18.51189728 0 0 1 18.38244345-18.38244346h331.53125136a18.51189728 18.51189728 0 0 1 18.38244346 18.38244346v36.7648869a18.51189728 18.51189728 0 0 1-18.38244346 18.51189728H345.52237827a18.51189728 18.51189728 0 0 1-18.38244345-18.51189728z m-82.85044939 653.74182715a46.08556247 46.08556247 0 1 1 46.08556247-46.08556247 46.2150163 46.2150163 0 0 1-46.08556247 46.08556247z m533.99703704 0a46.08556247 46.08556247 0 1 1 46.08556247-46.08556247 46.08556247 46.08556247 0 0 1-46.08556247 46.08556247z m46.08556247-211.78646123a18.51189728 18.51189728 0 0 1-18.38244346 18.38244346H216.71582025a18.51189728 18.51189728 0 0 1-18.51189728-18.38244346V292.05794765a18.51189728 18.51189728 0 0 1 18.51189728-18.38244346h589.27382123a18.51189728 18.51189728 0 0 1 18.38244346 18.38244346z m0 0" fill="#1296db" p-id="2567"></path></svg>