<?xml version="1.0" standalone="no"?><!DOCTYPE svg PUBLIC "-//W3C//DTD SVG 1.1//EN" "http://www.w3.org/Graphics/SVG/1.1/DTD/svg11.dtd"><svg t="1574648672106" class="icon" viewBox="0 0 1024 1024" version="1.1" xmlns="http://www.w3.org/2000/svg" p-id="8937" xmlns:xlink="http://www.w3.org/1999/xlink" width="200" height="200"><defs><style type="text/css"></style></defs><path d="M515.983144 997.113776h-7.966288l-13.443112-585.854133h34.852512z" fill="#BFBFBF" p-id="8938"></path><path d="M555.316694 451.754943h-86.633388c-7.63436 0-13.775041-6.140681-13.77504-13.77504v-53.772448c0-7.63436 6.140681-13.775041 13.77504-13.77504h86.633388c7.63436 0 13.775041 6.140681 13.77504 13.77504V438.145867c0 7.468395-6.140681 13.609076-13.77504 13.609076z" fill="#444C6D" p-id="8939"></path><path d="M512 224.383793m-197.497569 0a197.497569 197.497569 0 1 0 394.995138 0 197.497569 197.497569 0 1 0-394.995138 0Z" fill="#DD342E" p-id="8940"></path><path d="M392.837601 223.719935c-9.128039 0-16.596434-7.468395-16.596434-16.596434 0-65.223987 53.10859-118.332577 118.332577-118.332577 9.128039 0 16.596434 7.468395 16.596434 16.596434s-7.468395 16.596434-16.596434 16.596435c-46.967909 0-85.139708 38.171799-85.139708 85.139708 0 9.128039-7.468395 16.596434-16.596435 16.596434z" fill="#FFFFFF" p-id="8941"></path></svg>