<?xml version="1.0" standalone="no"?><!DOCTYPE svg PUBLIC "-//W3C//DTD SVG 1.1//EN" "http://www.w3.org/Graphics/SVG/1.1/DTD/svg11.dtd"><svg t="1574215962076" class="icon" viewBox="0 0 1024 1024" version="1.1" xmlns="http://www.w3.org/2000/svg" p-id="4884" xmlns:xlink="http://www.w3.org/1999/xlink" width="200" height="200"><defs><style type="text/css"></style></defs><path d="M35.84 504.832c0 266.752 217.088 483.84 483.84 483.84S1003.52 771.584 1003.52 504.832 786.432 20.992 519.68 20.992 35.84 238.08 35.84 504.832z m74.24 0c0-225.792 183.808-409.6 409.6-409.6s409.6 183.808 409.6 409.6-183.808 409.6-409.6 409.6c-225.792-0.512-409.6-184.32-409.6-409.6z" fill="#1296db" p-id="4885"></path><path d="M557.568 456.192h165.888c27.648 0 41.472 12.8 41.472 37.888-2.56 25.088-16.384 38.912-41.472 41.472H316.416c-25.088-2.56-38.912-16.384-41.472-41.472 0-25.088 13.824-37.888 41.472-37.888h241.152z" fill="#1296db" p-id="4886"></path></svg>