<?xml version="1.0" standalone="no"?><!DOCTYPE svg PUBLIC "-//W3C//DTD SVG 1.1//EN" "http://www.w3.org/Graphics/SVG/1.1/DTD/svg11.dtd"><svg t="1574125238320" class="icon" viewBox="0 0 1024 1024" version="1.1" xmlns="http://www.w3.org/2000/svg" p-id="5350" xmlns:xlink="http://www.w3.org/1999/xlink" width="200" height="200"><defs><style type="text/css"></style></defs><path d="M322.207 16.149h85.76S592.278 93.241 660.529 190.25s94.357 176.093 61.646 314.577c-27.041 114.482-90.583 193.315-162.923 287.512s-193.746 219.325-193.746 219.325H11.353S352.925 724.152 480.621 524.51s87.437-300.166-0.629-385.928S322.207 16.149 322.207 16.149z" fill="#1296db" p-id="5351"></path><path d="M454.516 16.149H541.324s287.789 75.334 397.662 268.415c27.588 48.48 117.841 226.823 53.259 420.841s-166.907 306.258-166.907 306.258H461.331s230.65-221.434 301.942-492.778c24.908-94.802 5.871-218.388-52.84-311.179-58.711-92.79-178.649-157.463-178.649-157.463l-77.268-34.094z" fill="#2c2c2c" p-id="5352"></path></svg>