<?xml version="1.0" standalone="no"?><!DOCTYPE svg PUBLIC "-//W3C//DTD SVG 1.1//EN" "http://www.w3.org/Graphics/SVG/1.1/DTD/svg11.dtd"><svg t="1574125298214" class="icon" viewBox="0 0 1024 1024" version="1.1" xmlns="http://www.w3.org/2000/svg" p-id="6865" xmlns:xlink="http://www.w3.org/1999/xlink" width="200" height="200"><defs><style type="text/css"></style></defs><path d="M102.6688 448l-0.7936-0.0128a25.6 25.6 0 0 1-24.8064-26.368C84.2112 185.2032 275.2512 0 512 0c236.736 0 427.7888 185.2032 434.9312 421.6192a25.6128 25.6128 0 0 1-24.8064 26.368 25.6384 25.6384 0 0 1-26.368-24.8064C889.4464 214.592 720.8832 51.2 512 51.2S134.5536 214.592 128.2432 423.1808A25.6 25.6 0 0 1 102.6688 448z" fill="#1296db" p-id="6866"></path><path d="M102.4 704c-56.4608 0-102.4-45.9392-102.4-102.4v-102.4c0-56.4608 45.9392-102.4 102.4-102.4s102.4 45.9392 102.4 102.4v102.4c0 56.4608-45.9392 102.4-102.4 102.4z m0-256c-28.2368 0-51.2 22.9632-51.2 51.2v102.4c0 28.2368 22.9632 51.2 51.2 51.2s51.2-22.9632 51.2-51.2v-102.4c0-28.2368-22.9632-51.2-51.2-51.2zM921.6 704c-56.4608 0-102.4-45.9392-102.4-102.4v-102.4c0-56.4608 45.9392-102.4 102.4-102.4s102.4 45.9392 102.4 102.4v102.4c0 56.4608-45.9392 102.4-102.4 102.4z m0-256c-28.2368 0-51.2 22.9632-51.2 51.2v102.4c0 28.2368 22.9632 51.2 51.2 51.2s51.2-22.9632 51.2-51.2v-102.4c0-28.2368-22.9632-51.2-51.2-51.2z" fill="#1296db" p-id="6867"></path><path d="M665.6 972.8a25.6 25.6 0 0 1 0-51.2c127.04 0 230.4-103.36 230.4-230.4a25.6 25.6 0 0 1 51.2 0c0 155.2768-126.3232 281.6-281.6 281.6z" fill="#1296db" p-id="6868"></path><path d="M614.4 1024h-76.8c-42.3552 0-76.8-34.4448-76.8-76.8s34.4448-76.8 76.8-76.8h76.8c42.3552 0 76.8 34.4448 76.8 76.8s-34.4448 76.8-76.8 76.8z m-76.8-102.4c-14.1184 0-25.6 11.4816-25.6 25.6s11.4816 25.6 25.6 25.6h76.8c14.1184 0 25.6-11.4816 25.6-25.6s-11.4816-25.6-25.6-25.6h-76.8z" fill="#1296db" p-id="6869"></path></svg>