<?xml version="1.0" standalone="no"?><!DOCTYPE svg PUBLIC "-//W3C//DTD SVG 1.1//EN" "http://www.w3.org/Graphics/SVG/1.1/DTD/svg11.dtd"><svg t="1575364769020" class="icon" viewBox="0 0 1024 1024" version="1.1" xmlns="http://www.w3.org/2000/svg" p-id="39628" xmlns:xlink="http://www.w3.org/1999/xlink" width="200" height="200"><defs><style type="text/css"></style></defs><path d="M584.478 737.92c-5.161-74.316-36.133-147.148-92.984-204s-129.683-87.822-204.142-92.984c-4.242-0.283-8.06 2.97-8.485 7.354l-4.88 55.79a8.082 8.082 0 0 0 7.425 8.698c57.983 3.677 114.835 27.718 159.17 72.054s68.377 101.187 72.125 159.099a8.082 8.082 0 0 0 8.698 7.425l55.79-4.88c4.314-0.353 7.566-4.171 7.283-8.555zM278.655 654.836a64 64 0 1 0 90.51 90.51 64 64 0 1 0-90.51-90.51z" fill="#B4B6EE" p-id="39629"></path></svg>